# This file uses centimeters as units for non-parametric coordinates.

mtllib sandbag_model.mtl
g default
v 0.632727 0.004336 -3.118028
v 0.584821 0.019033 2.077137
v 0.559167 -0.777735 -0.611656
v 1.966337 0.038774 -0.596709
v 0.637416 0.777735 -0.639566
v -0.714593 0.017348 -0.614679
v 1.919394 -0.052334 -3.000497
v 0.584165 -0.516807 -2.699397
v -0.660884 -0.024484 -2.974564
v 0.608074 0.475964 -2.631334
v 1.816687 -0.042983 1.962567
v 0.585432 0.593770 1.491607
v -0.675999 -0.050272 1.978602
v 0.553802 -0.625080 1.582167
v -0.406297 -0.568231 -0.620425
v 1.604943 -0.583745 -0.613419
v 1.574173 0.605384 -0.608248
v -0.368537 0.639792 -0.651030
v -0.342661 -0.471438 -2.504177
v 1.518477 -0.455432 -2.527378
v -0.400056 0.453945 -2.541855
v 1.660576 0.409984 -2.561585
v -0.396773 -0.555134 1.423644
v 1.551345 -0.529305 1.464402
v -0.367874 0.469704 1.321213
v 1.549299 0.515640 1.499388
vt 0.537836 0.185096
vt 0.138628 0.709979
vt 0.276965 0.725405
vt 0.767471 0.166484
vt 0.407108 0.688888
vt 0.481162 0.766254
vt 0.904416 0.300544
vt 0.763200 0.275529
vt 0.609959 0.280784
vt 0.054396 0.056862
vt 0.616271 0.858760
vt 0.743346 0.861453
vt 0.245015 0.004891
vt 0.874391 0.845467
vt 0.939889 0.956362
vt 0.379249 0.136203
vt 0.252698 0.121285
vt 0.120218 0.139170
vt 0.264204 0.422150
vt 0.404238 0.416941
vt 0.112696 0.427003
vt 0.505216 0.570672
vt 0.608384 0.568918
vt 0.744533 0.566956
vt 0.888000 0.570306
vt 0.500866 0.411988
vt 0.973688 0.225726
vt 0.991770 0.580092
vt 0.441712 0.042927
vt 0.057222 0.806545
vt 0.005473 0.426681
vt 0.546009 0.940166
vt 0.740551 0.981089
vt 0.279784 0.829907
vn 0.781653 -0.146471 -0.606272
vn 0.321028 -0.907365 -0.271348
vn -0.002268 -0.914046 -0.405604
vn -0.008747 -0.002728 -0.999958
vn -0.413624 -0.850506 -0.324891
vn -0.785215 0.002178 -0.619220
vn -0.382414 0.853978 -0.352819
vn 0.012125 0.898724 -0.438347
vn 0.393838 0.862053 -0.318991
vn 0.772772 -0.004039 0.634671
vn 0.409150 0.841948 0.351737
vn -0.062122 0.897883 0.435828
vn -0.061765 -0.009742 0.998043
vn -0.454309 0.838478 0.300929
vn -0.842258 -0.011020 0.538962
vn -0.427869 -0.863653 0.266517
vn 0.001308 -0.913641 0.406521
vn 0.439800 -0.833804 0.333686
vn 0.010496 -0.999751 -0.019668
vn -0.511820 -0.859083 0.004160
vn 0.466040 -0.883943 -0.038104
vn 0.996007 -0.087857 -0.015881
vn 0.540686 0.841213 -0.004305
vn -0.007560 0.999803 -0.018371
vn -0.530952 0.847156 -0.020433
vn -0.999931 -0.011451 -0.002760
s 1
g TurtleDefaultBakeLayer sandbag_model
usemtl sandbag_sg
f 7/30/1 20/2/2 8/3/3 1/34/4
f 1/34/4 8/3/3 19/5/5 9/6/6
f 9/27/6 21/7/7 10/8/8 1/4/4
f 1/4/4 10/8/8 22/9/9 7/1/1
f 11/32/10 26/11/11 12/12/12 2/33/13
f 2/33/13 12/12/12 25/14/14 13/15/15
f 13/29/15 23/16/16 14/17/17 2/13/13
f 2/13/13 14/17/17 24/18/18 11/10/10
f 3/19/19 14/17/17 23/16/16 15/20/20
f 15/20/20 19/5/5 8/3/3 3/19/19
f 3/19/19 8/3/3 20/2/2 16/21/21
f 16/21/21 24/18/18 14/17/17 3/19/19
f 4/31/22 11/10/10 24/18/18 16/21/21
f 16/21/21 20/2/2 7/30/1 4/31/22
f 4/22/22 7/1/1 22/9/9 17/23/23
f 17/23/23 26/11/11 11/32/10 4/22/22
f 5/24/24 12/12/12 26/11/11 17/23/23
f 17/23/23 22/9/9 10/8/8 5/24/24
f 5/24/24 10/8/8 21/7/7 18/25/25
f 18/25/25 25/14/14 12/12/12 5/24/24
f 6/28/26 13/15/15 25/14/14 18/25/25
f 18/25/25 21/7/7 9/27/6 6/28/26
f 6/26/26 9/6/6 19/5/5 15/20/20
f 15/20/20 23/16/16 13/29/15 6/26/26
